<svg width="512" height="512" viewBox="0 0 512 512" fill="none" xmlns="http://www.w3.org/2000/svg">
<rect width="512" height="512" fill="white"/>
<path d="M255.627 29L254.489 30.1483V30.7224L253.92 31.2965V31.8707L253.351 32.4448V33.019L252.783 33.5931V34.7414L252.214 35.3155V35.8896L251.645 36.4638V37.0379L251.076 37.612V38.1862L250.507 38.7603V39.9086L249.939 40.4827V41.0569L249.37 41.631V42.2051L248.801 42.7793V43.9276L248.232 44.5017V45.0758L247.664 45.65V46.7982L247.095 47.3724V47.9465L246.526 48.5206V49.0948L245.957 49.6689V50.8172L245.388 51.3913V51.9655L244.82 52.5396V53.1137L244.251 53.6879V54.262L243.682 54.8361V55.4103L243.113 55.9844V57.1327L242.545 57.7068V58.281L241.976 58.8551V59.4292L241.407 60.0034V60.5775L240.838 61.1517V61.7258L240.269 62.2999V63.4482L239.701 64.0223V64.5965L239.132 65.1706V65.7447L238.563 66.3189V67.4672L237.994 68.0413V68.6154L237.426 69.1896V69.7637L236.857 70.3378V71.4861L236.288 72.0602V72.6344L235.719 73.2085V73.7827L235.15 74.3568V75.5051L234.582 76.0792V76.6533L234.013 77.2275V77.8016L233.444 78.3757V78.9499L232.875 79.524V80.6723L232.306 81.2464V81.8206L231.738 82.3947V82.9688L231.169 83.543V84.1171L230.6 84.6913V85.2654L230.031 85.8395V86.9878L229.463 87.5619V88.1361L228.894 88.7102V89.2843L228.325 89.8585V90.4326L227.756 91.0068V92.155L227.187 92.7292V93.3033L226.619 93.8774V94.4516L226.05 95.0257V96.174L225.481 96.7481V97.3223L224.912 97.8964V98.4705L224.344 99.0447V99.6188L223.775 100.193V101.341L223.206 101.915V102.489L222.637 103.064V103.638L222.068 104.212V104.786L221.5 105.36V105.934L220.931 106.508V107.657L220.362 108.231V108.805L219.793 109.379V109.953L219.225 110.527V111.102L218.656 111.676V112.824L218.087 113.398V113.972L217.518 114.546V115.12L216.949 115.695V116.269L217.518 116.843H218.087L223.775 111.102H224.344L240.269 95.0257H240.838L244.82 91.0068L245.388 91.5809V253.487L244.82 254.062H219.793L219.225 253.487H216.381L215.812 252.913H214.105L213.537 252.339H212.399L211.83 251.765H210.124L209.555 251.191H208.418L207.849 250.617H207.28L206.711 250.043H205.574L205.005 249.468H204.436L203.867 248.894H203.299L202.73 248.32H201.592L200.455 247.172H199.886L199.317 246.598H198.748L198.18 246.024H197.611L196.473 244.875H195.904L194.767 243.727H194.198L193.061 242.579H192.492L189.648 239.708H189.079L183.96 234.541V233.967L181.685 231.67V231.096L179.979 229.374V228.8L178.841 227.651V227.077L177.703 225.929V225.355L176.566 224.206V223.632L175.997 223.058V222.484L175.428 221.91V221.336L174.86 220.762V220.187L174.291 219.613V219.039L173.722 218.465V217.891L173.153 217.317V216.169L172.584 215.594V215.02L172.016 214.446V213.298L171.447 212.724V211.575L170.878 211.001V209.279L170.309 208.705V207.556L169.741 206.982V205.26L169.172 204.686V203.538L168.603 202.963V201.241L168.034 200.667V198.944L167.465 198.37V197.222L166.897 196.648V194.925L166.328 194.351V192.629L165.759 192.055V190.332L165.19 189.758V188.036L164.622 187.462V186.313L164.053 185.739V184.017L163.484 183.443V181.72L162.915 181.146V179.424L162.346 178.85V177.127L161.778 176.553V174.831L161.209 174.257V173.108L160.64 172.534V170.812L160.071 170.238V168.515L159.502 167.941V166.219L158.934 165.645V163.922L158.365 163.348V162.2L157.796 161.626V159.903L157.227 159.329V157.607L156.659 157.032V155.31L156.09 154.736V153.014L155.521 152.439V150.717L154.952 150.143V148.995L154.383 148.42V146.698L153.815 146.124V144.401L153.246 143.827V142.105L152.677 141.531V140.383L152.108 139.808V138.086L151.54 137.512V135.789L150.971 135.215V134.067L151.54 133.493L152.108 134.067H173.153L173.722 133.493V132.919L172.016 131.196H171.447L168.603 128.326H168.034L165.19 125.455H164.622L161.778 122.584H161.209L158.365 119.714H157.796L154.952 116.843H154.383L151.54 113.972H150.971L148.127 111.102H147.558L144.145 107.657H143.577L140.733 104.786H140.164L137.32 101.915H136.751L133.907 99.0447H133.339L131.063 96.7481H130.495L127.651 93.8774H127.082L124.238 91.0068H123.669L120.825 88.1361H120.257L117.413 85.2654H116.844L115.706 84.1171H114.569L114 84.6913V86.4137L114.569 86.9878V88.7102L115.138 89.2843V91.0068L115.706 91.5809V93.3033L116.275 93.8774V95.5998L116.844 96.174V97.3223L117.413 97.8964V99.6188L117.981 100.193V101.341L118.55 101.915V103.638L119.119 104.212V105.934L119.688 106.508V107.657L120.257 108.231V109.953L120.825 110.527V112.25L121.394 112.824V113.972L121.963 114.546V116.269L122.532 116.843V117.991L123.1 118.565V120.288L123.669 120.862V122.584L124.238 123.158V124.307L124.807 124.881V126.603L125.376 127.177V128.9L125.944 129.474V131.196L126.513 131.77V132.919L127.082 133.493V135.215L127.651 135.789V137.512L128.22 138.086V139.808L128.788 140.383V141.531L129.357 142.105V143.827L129.926 144.401V145.55L130.495 146.124V147.846L131.063 148.42V150.143L131.632 150.717V151.865L132.201 152.439V154.162L132.77 154.736V156.458L133.339 157.032V158.181L133.907 158.755V160.477L134.476 161.051V162.2L135.045 162.774V164.496L135.614 165.07V166.793L136.182 167.367V168.515L136.751 169.089V170.812L137.32 171.386V173.108L137.889 173.682V174.831L138.458 175.405V177.127L139.026 177.701V179.424L139.595 179.998V181.146L140.164 181.72V183.443L140.733 184.017V185.739L141.301 186.313V187.462L141.87 188.036V189.758L142.439 190.332V191.481L143.008 192.055V193.777L143.577 194.351V196.074L144.145 196.648V198.37L144.714 198.944V200.093L145.283 200.667V202.389L145.852 202.963V204.686L146.421 205.26V206.408L146.989 206.982V208.705L147.558 209.279V211.001L148.127 211.575V212.724L148.696 213.298V215.02L149.264 215.594V216.743L149.833 217.317V219.039L150.402 219.613V220.762L150.971 221.336V222.484L151.54 223.058V223.632L152.108 224.206V225.355L152.677 225.929V226.503L153.246 227.077V227.651L153.815 228.225V229.374L154.383 229.948V230.522L154.952 231.096V231.67L155.521 232.244V232.818L156.09 233.393V233.967L157.227 235.115V235.689L157.796 236.263V236.837L158.365 237.412V237.986L159.502 239.134V239.708L160.64 240.856V241.431L161.778 242.579V243.153L163.484 244.875V245.45L165.759 247.746V248.32L175.997 258.655H176.566L178.841 260.951H179.41L181.116 262.674H181.685L182.823 263.822H183.391L184.529 264.97H185.098L186.235 266.118H186.804L187.373 266.693H187.942L188.51 267.267H189.079L189.648 267.841H190.217L191.354 268.989H191.923L192.492 269.563H193.629L194.198 270.137H194.767L195.336 270.712H195.904L196.473 271.286H197.042L197.611 271.86H198.748L199.317 272.434H199.886L200.455 273.008H201.592L202.161 273.582H203.299L203.867 274.156H205.005L205.574 274.73H206.711L207.28 275.305H208.986L209.555 275.879H211.83L212.399 276.453H214.674L215.243 277.027H219.793L220.362 277.601H244.82L245.388 278.175V297.696L244.82 298.27H227.756L227.187 298.844H226.619L223.775 301.715V302.289L223.206 302.863V304.011L222.637 304.586V306.882L223.206 307.456V308.605L223.775 309.179V309.753L226.05 312.049H226.619L227.187 312.623H227.756L228.325 313.198H244.82L245.388 313.772V476.827L245.957 477.401V478.549L246.526 479.123V479.697L247.095 480.271V480.846L250.507 484.29H251.076L251.645 484.864H252.783L253.351 485.439H257.902L258.47 484.864H259.608L260.177 484.29H260.746L261.314 483.716H261.883L264.158 481.42V480.846L264.727 480.271V479.697L265.296 479.123V477.975L265.865 477.401V313.772L266.433 313.198H282.928L283.497 312.623H284.066L284.634 312.049H285.203L287.478 309.753V309.179L288.047 308.605V302.863L287.478 302.289V301.715L285.203 299.418H284.634L284.066 298.844H283.497L282.928 298.27H266.433L265.865 297.696V278.175L266.433 277.601H292.029L292.597 277.027H297.148L297.716 276.453H299.991L300.56 275.879H302.267L302.835 275.305H304.542L305.11 274.73H306.817L307.386 274.156H308.523L309.092 273.582H309.661L310.23 273.008H311.367L311.936 272.434H313.073L313.642 271.86H314.211L314.78 271.286H315.349L315.917 270.712H316.486L317.055 270.137H318.192L318.761 269.563H319.33L319.899 268.989H320.468L321.036 268.415H321.605L322.743 267.267H323.311L323.88 266.693H324.449L325.018 266.118H325.587L326.724 264.97H327.293L328.431 263.822H328.999L330.137 262.674H330.706L332.412 260.951H332.981L335.256 258.655H335.825L346.063 248.32V247.746L347.769 246.024V245.45L349.475 243.727V243.153L351.182 241.431V240.856L351.751 240.282V239.708L352.888 238.56V237.986L354.026 236.837V236.263L354.594 235.689V235.115L355.163 234.541V233.967L355.732 233.393V232.818L356.301 232.244V231.67L356.87 231.096V230.522L357.438 229.948V229.374L358.007 228.8V228.225L358.576 227.651V227.077L359.145 226.503V225.355L359.713 224.781V224.206L360.282 223.632V222.484L360.851 221.91V220.762L361.42 220.187V219.039L361.989 218.465V217.317L362.557 216.743V215.594L363.126 215.02V213.298L363.695 212.724V211.575L364.264 211.001V209.279L364.833 208.705V206.982L365.401 206.408V205.26L365.97 204.686V202.963L366.539 202.389V200.667L367.108 200.093V198.944L367.676 198.37V196.648L368.245 196.074V194.351L368.814 193.777V192.629L369.383 192.055V190.332L369.952 189.758V188.036L370.52 187.462V186.313L371.089 185.739V184.017L371.658 183.443V181.72L372.227 181.146V179.998L372.795 179.424V177.701L373.364 177.127V175.405L373.933 174.831V173.682L374.502 173.108V171.386L375.071 170.812V169.089L375.639 168.515V167.367L376.208 166.793V165.07L376.777 164.496V162.774L377.346 162.2V161.051L377.914 160.477V158.755L378.483 158.181V156.458L379.052 155.884V154.736L379.621 154.162V152.439L380.19 151.865V150.143L380.758 149.569V148.42L381.327 147.846V146.124L381.896 145.55V143.827L382.465 143.253V142.105L383.034 141.531V139.808L383.602 139.234V137.512L384.171 136.938V135.789L384.74 135.215V133.493L385.309 132.919V131.196L385.877 130.622V129.474L386.446 128.9V127.177L387.015 126.603V125.455L387.584 124.881V123.158L388.153 122.584V120.862L388.721 120.288V119.139L389.29 118.565V116.843L389.859 116.269V115.12L390.428 114.546V112.824L390.996 112.25V110.527L391.565 109.953V108.805L392.134 108.231V106.508L392.703 105.934V104.212L393.272 103.638V102.489L393.84 101.915V100.193L394.409 99.6188V97.8964L394.978 97.3223V96.174L395.547 95.5998V93.8774L396.115 93.3033V91.5809L396.684 91.0068V89.8585L397.253 89.2843V87.5619L397.822 86.9878V84.6913L397.253 84.1171H396.115L394.409 85.8395H393.84L390.428 89.2843H389.859L387.584 91.5809H387.015L384.171 94.4516H383.602L380.758 97.3223H380.19L377.346 100.193H376.777L373.933 103.064H373.364L370.52 105.934H369.952L367.108 108.805H366.539L363.695 111.676H363.126L360.282 114.546H359.713L356.87 117.417H356.301L353.457 120.288H352.888L350.044 123.158H349.475L346.063 126.603H345.494L343.219 128.9H342.65L339.806 131.77H339.237L338.1 132.919V133.493L338.669 134.067H359.713L360.282 133.493L360.851 134.067V135.215L360.282 135.789V137.512L359.713 138.086V139.234L359.145 139.808V141.531L358.576 142.105V143.827L358.007 144.401V145.55L357.438 146.124V147.846L356.87 148.42V150.143L356.301 150.717V152.439L355.732 153.014V154.162L355.163 154.736V156.458L354.594 157.032V158.755L354.026 159.329V161.051L353.457 161.626V163.348L352.888 163.922V165.07L352.319 165.645V167.367L351.751 167.941V169.663L351.182 170.238V171.96L350.613 172.534V174.257L350.044 174.831V175.979L349.475 176.553V178.276L348.907 178.85V180.572L348.338 181.146V182.294L347.769 182.869V184.591L347.2 185.165V186.888L346.632 187.462V189.184L346.063 189.758V190.907L345.494 191.481V193.203L344.925 193.777V195.5L344.356 196.074V197.796L343.788 198.37V199.519L343.219 200.093V201.815L342.65 202.389V204.112L342.081 204.686V206.408L341.512 206.982V208.131L340.944 208.705V209.853L340.375 210.427V212.15L339.806 212.724V213.298L339.237 213.872V215.02L338.669 215.594V216.743L338.1 217.317V217.891L337.531 218.465V219.039L336.962 219.613V220.187L336.393 220.762V221.336L335.825 221.91V222.484L335.256 223.058V223.632L334.687 224.206V224.781L333.55 225.929V226.503L332.981 227.077V227.651L331.843 228.8V229.374L330.137 231.096V231.67L326.724 235.115V235.689L323.311 239.134H322.743L319.899 242.005H319.33L317.624 243.727H317.055L315.917 244.875H315.349L314.211 246.024H313.642L313.073 246.598H312.505L311.936 247.172H311.367L310.798 247.746H310.23L309.661 248.32H309.092L308.523 248.894H307.954L307.386 249.468H306.817L306.248 250.043H305.679L305.11 250.617H303.973L303.404 251.191H302.267L301.698 251.765H300.56L299.991 252.339H298.285L297.716 252.913H296.01L295.441 253.487H293.166L292.597 254.062H266.433L265.865 253.487V90.4326L266.433 89.8585L290.891 114.546H291.46L293.166 116.269H294.304V114.546L293.735 113.972V113.398L293.166 112.824V112.25L292.597 111.676V110.527L292.029 109.953V109.379L291.46 108.805V108.231L290.891 107.657V107.083L290.322 106.508V105.36L289.753 104.786V104.212L289.185 103.638V103.064L288.616 102.489V101.915L288.047 101.341V100.193L287.478 99.6188V99.0447L286.909 98.4705V97.8964L286.341 97.3223V96.7481L285.772 96.174V95.5998L285.203 95.0257V93.8774L284.634 93.3033V92.7292L284.066 92.155V91.5809L283.497 91.0068V90.4326L282.928 89.8585V88.7102L282.359 88.1361V87.5619L281.79 86.9878V86.4137L281.222 85.8395V84.6913L280.653 84.1171V83.543L280.084 82.9688V81.8206L279.515 81.2464V80.6723L278.947 80.0982V79.524L278.378 78.9499V78.3757L277.809 77.8016V76.6533L277.24 76.0792V75.5051L276.671 74.9309V74.3568L276.103 73.7827V73.2085L275.534 72.6344V71.4861L274.965 70.912V70.3378L274.396 69.7637V69.1896L273.828 68.6154V68.0413L273.259 67.4672V66.3189L272.69 65.7447V65.1706L272.121 64.5965V64.0223L271.552 63.4482V62.8741L270.984 62.2999V61.1517L270.415 60.5775V60.0034L269.846 59.4292V58.8551L269.277 58.281V57.7068L268.708 57.1327V56.5586L268.14 55.9844V54.8361L267.571 54.262V53.6879L267.002 53.1137V52.5396L266.433 51.9655V51.3913L265.865 50.8172V49.6689L265.296 49.0948V48.5206L264.727 47.9465V47.3724L264.158 46.7982V46.2241L263.589 45.65V44.5017L263.021 43.9276V43.3534L262.452 42.7793V42.2051L261.883 41.631V41.0569L261.314 40.4827V39.3345L260.746 38.7603V38.1862L260.177 37.612V37.0379L259.608 36.4638V35.8896L259.039 35.3155V34.1672L258.47 33.5931V33.019L257.902 32.4448V31.8707L257.333 31.2965V30.7224L256.764 30.1483V29.5741L256.195 29" fill="black"/>
</svg>
