<svg width="300" height="300" viewBox="0 0 300 300" fill="none" xmlns="http://www.w3.org/2000/svg">
<rect width="300" height="300" fill="white"/>
<path d="M154.329 11L153.643 11.6918V12.0377L153.301 12.3836V12.7296L152.958 13.0755V13.4214L152.615 13.7673V14.4591L152.273 14.805V15.1509L151.93 15.4969V15.8428L151.587 16.1887V16.5346L151.244 16.8805V17.5723L150.902 17.9182V18.2642L150.559 18.6101V18.956L150.216 19.3019V19.9937L149.874 20.3396V20.6855L149.531 21.0314V21.7233L149.188 22.0692V22.4151L148.846 22.761V23.1069L148.503 23.4528V24.1447L148.16 24.4906V24.8365L147.818 25.1824V25.5283L147.475 25.8742V26.2201L147.132 26.566V26.9119L146.79 27.2579V27.9497L146.447 28.2956V28.6415L146.104 28.9874V29.3333L145.762 29.6792V30.0252L145.419 30.3711V30.717L145.076 31.0629V31.7547L144.733 32.1006V32.4465L144.391 32.7925V33.1384L144.048 33.4843V34.1761L143.705 34.522V34.8679L143.363 35.2138V35.5597L143.02 35.9057V36.5975L142.677 36.9434V37.2893L142.335 37.6352V37.9811L141.992 38.327V39.0189L141.649 39.3648V39.7107L141.307 40.0566V40.4025L140.964 40.7484V41.0943L140.621 41.4403V42.1321L140.279 42.478V42.8239L139.936 43.1698V43.5157L139.593 43.8616V44.2075L139.251 44.5535V44.8994L138.908 45.2453V45.9371L138.565 46.283V46.6289L138.222 46.9748V47.3208L137.88 47.6667V48.0126L137.537 48.3585V49.0503L137.194 49.3962V49.7421L136.852 50.0881V50.434L136.509 50.7799V51.4717L136.166 51.8176V52.1635L135.824 52.5094V52.8553L135.481 53.2013V53.5472L135.138 53.8931V54.5849L134.796 54.9308V55.2767L134.453 55.6226V55.9686L134.11 56.3145V56.6604L133.768 57.0063V57.3522L133.425 57.6981V58.3899L133.082 58.7358V59.0818L132.739 59.4277V59.7736L132.397 60.1195V60.4654L132.054 60.8113V61.5031L131.711 61.8491V62.195L131.369 62.5409V62.8868L131.026 63.2327V63.5786L131.369 63.9245H131.711L135.138 60.4654H135.481L145.076 50.7799H145.419L147.818 48.3585L148.16 48.7044V146.252L147.818 146.597H132.739L132.397 146.252H130.683L130.341 145.906H129.313L128.97 145.56H128.285L127.942 145.214H126.914L126.571 144.868H125.886L125.543 144.522H125.2L124.858 144.176H124.172L123.83 143.83H123.487L123.144 143.484H122.802L122.459 143.138H121.774L121.088 142.447H120.745L120.403 142.101H120.06L119.717 141.755H119.375L118.689 141.063H118.347L117.661 140.371H117.319L116.633 139.679H116.291L114.577 137.95H114.234L111.15 134.836V134.491L109.78 133.107V132.761L108.752 131.723V131.377L108.066 130.686V130.34L107.381 129.648V129.302L106.695 128.61V128.264L106.353 127.918V127.572L106.01 127.226V126.881L105.667 126.535V126.189L105.325 125.843V125.497L104.982 125.151V124.805L104.639 124.459V123.767L104.297 123.421V123.075L103.954 122.73V122.038L103.611 121.692V121L103.269 120.654V119.616L102.926 119.27V118.579L102.583 118.233V117.195L102.24 116.849V116.157L101.898 115.811V114.774L101.555 114.428V113.39L101.212 113.044V112.352L100.87 112.006V110.969L100.527 110.623V109.585L100.184 109.239V108.201L99.8417 107.855V106.818L99.499 106.472V105.78L99.1563 105.434V104.396L98.8136 104.05V103.013L98.4709 102.667V101.629L98.1283 101.283V100.245L97.7856 99.8994V98.8616L97.4429 98.5157V97.8239L97.1002 97.478V96.4403L96.7575 96.0943V95.0566L96.4148 94.7107V93.673L96.0721 93.327V92.2893L95.7295 91.9434V91.2516L95.3868 90.9057V89.8679L95.0441 89.522V88.4843L94.7014 88.1384V87.1006L94.3587 86.7547V85.717L94.016 85.3711V84.3333L93.6733 83.9874V83.2956L93.3307 82.9497V81.9119L92.988 81.566V80.5283L92.6453 80.1824V79.1447L92.3026 78.7987V78.1069L91.9599 77.761V76.7233L91.6172 76.3774V75.3396L91.2745 74.9937V74.3019L91.6172 73.956L91.9599 74.3019H104.639L104.982 73.956V73.6101L103.954 72.5723H103.611L101.898 70.8428H101.555L99.8417 69.1132H99.499L97.7856 67.3836H97.4429L95.7295 65.6541H95.3868L93.6733 63.9245H93.3307L91.6172 62.195H91.2745L89.5611 60.4654H89.2184L87.1623 58.3899H86.8196L85.1062 56.6604H84.7635L83.0501 54.9308H82.7074L80.994 53.2013H80.6513L79.2806 51.8176H78.9379L77.2244 50.0881H76.8818L75.1683 48.3585H74.8257L73.1122 46.6289H72.7695L71.0561 44.8994H70.7134L70.0281 44.2075H69.3427L69 44.5535V45.5912L69.3427 45.9371V46.9748L69.6854 47.3208V48.3585L70.0281 48.7044V49.7421L70.3707 50.0881V51.1258L70.7134 51.4717V52.1635L71.0561 52.5094V53.5472L71.3988 53.8931V54.5849L71.7415 54.9308V55.9686L72.0842 56.3145V57.3522L72.4269 57.6981V58.3899L72.7695 58.7358V59.7736L73.1122 60.1195V61.1572L73.4549 61.5031V62.195L73.7976 62.5409V63.5786L74.1403 63.9245V64.6164L74.483 64.9623V66L74.8257 66.3459V67.3836L75.1683 67.7296V68.4214L75.511 68.7673V69.805L75.8537 70.1509V71.1887L76.1964 71.5346V72.5723L76.5391 72.9182V73.6101L76.8818 73.956V74.9937L77.2244 75.3396V76.3774L77.5671 76.7233V77.761L77.9098 78.1069V78.7987L78.2525 79.1447V80.1824L78.5952 80.5283V81.2201L78.9379 81.566V82.6038L79.2806 82.9497V83.9874L79.6232 84.3333V85.0252L79.9659 85.3711V86.4088L80.3086 86.7547V87.7925L80.6513 88.1384V88.8302L80.994 89.1761V90.2138L81.3367 90.5597V91.2516L81.6794 91.5975V92.6352L82.022 92.9811V94.0189L82.3647 94.3648V95.0566L82.7074 95.4025V96.4403L83.0501 96.7862V97.8239L83.3928 98.1698V98.8616L83.7355 99.2075V100.245L84.0782 100.591V101.629L84.4208 101.975V102.667L84.7635 103.013V104.05L85.1062 104.396V105.434L85.4489 105.78V106.472L85.7916 106.818V107.855L86.1343 108.201V108.893L86.477 109.239V110.277L86.8196 110.623V111.66L87.1623 112.006V113.044L87.505 113.39V114.082L87.8477 114.428V115.465L88.1904 115.811V116.849L88.5331 117.195V117.887L88.8758 118.233V119.27L89.2184 119.616V120.654L89.5611 121V121.692L89.9038 122.038V123.075L90.2465 123.421V124.113L90.5892 124.459V125.497L90.9319 125.843V126.535L91.2745 126.881V127.572L91.6172 127.918V128.264L91.9599 128.61V129.302L92.3026 129.648V129.994L92.6453 130.34V130.686L92.988 131.031V131.723L93.3307 132.069V132.415L93.6733 132.761V133.107L94.016 133.453V133.799L94.3587 134.145V134.491L95.0441 135.182V135.528L95.3868 135.874V136.22L95.7295 136.566V136.912L96.4148 137.604V137.95L97.1002 138.642V138.987L97.7856 139.679V140.025L98.8136 141.063V141.409L100.184 142.792V143.138L106.353 149.365H106.695L108.066 150.748H108.409L109.437 151.786H109.78L110.465 152.478H110.808L111.493 153.17H111.836L112.521 153.862H112.864L113.206 154.208H113.549L113.892 154.553H114.234L114.577 154.899H114.92L115.605 155.591H115.948L116.291 155.937H116.976L117.319 156.283H117.661L118.004 156.629H118.347L118.689 156.975H119.032L119.375 157.321H120.06L120.403 157.667H120.745L121.088 158.013H121.774L122.116 158.358H122.802L123.144 158.704H123.83L124.172 159.05H124.858L125.2 159.396H126.228L126.571 159.742H127.942L128.285 160.088H129.655L129.998 160.434H132.739L133.082 160.78H147.818L148.16 161.126V172.887L147.818 173.233H137.537L137.194 173.579H136.852L135.138 175.308V175.654L134.796 176V176.692L134.453 177.038V178.421L134.796 178.767V179.459L135.138 179.805V180.151L136.509 181.535H136.852L137.194 181.881H137.537L137.88 182.226H147.818L148.16 182.572V280.811L148.503 281.157V281.849L148.846 282.195V282.541L149.188 282.887V283.233L151.244 285.308H151.587L151.93 285.654H152.615L152.958 286H155.699L156.042 285.654H156.727L157.07 285.308H157.413L157.756 284.962H158.098L159.469 283.579V283.233L159.812 282.887V282.541L160.154 282.195V281.503L160.497 281.157V182.572L160.84 182.226H170.778L171.12 181.881H171.463L171.806 181.535H172.148L173.519 180.151V179.805L173.862 179.459V176L173.519 175.654V175.308L172.148 173.925H171.806L171.463 173.579H171.12L170.778 173.233H160.84L160.497 172.887V161.126L160.84 160.78H176.261L176.603 160.434H179.345L179.687 160.088H181.058L181.401 159.742H182.429L182.772 159.396H183.8L184.142 159.05H185.17L185.513 158.704H186.198L186.541 158.358H186.884L187.226 158.013H187.912L188.255 157.667H188.94L189.283 157.321H189.625L189.968 156.975H190.311L190.653 156.629H190.996L191.339 156.283H192.024L192.367 155.937H192.709L193.052 155.591H193.395L193.737 155.245H194.08L194.766 154.553H195.108L195.451 154.208H195.794L196.136 153.862H196.479L197.164 153.17H197.507L198.192 152.478H198.535L199.22 151.786H199.563L200.591 150.748H200.934L202.305 149.365H202.647L208.816 143.138V142.792L209.844 141.755V141.409L210.872 140.371V140.025L211.9 138.987V138.642L212.242 138.296V137.95L212.928 137.258V136.912L213.613 136.22V135.874L213.956 135.528V135.182L214.299 134.836V134.491L214.641 134.145V133.799L214.984 133.453V133.107L215.327 132.761V132.415L215.669 132.069V131.723L216.012 131.377V131.031L216.355 130.686V130.34L216.697 129.994V129.302L217.04 128.956V128.61L217.383 128.264V127.572L217.725 127.226V126.535L218.068 126.189V125.497L218.411 125.151V124.459L218.754 124.113V123.421L219.096 123.075V122.038L219.439 121.692V121L219.782 120.654V119.616L220.124 119.27V118.233L220.467 117.887V117.195L220.81 116.849V115.811L221.152 115.465V114.428L221.495 114.082V113.39L221.838 113.044V112.006L222.18 111.66V110.623L222.523 110.277V109.585L222.866 109.239V108.201L223.208 107.855V106.818L223.551 106.472V105.78L223.894 105.434V104.396L224.236 104.05V103.013L224.579 102.667V101.975L224.922 101.629V100.591L225.265 100.245V99.2075L225.607 98.8616V98.1698L225.95 97.8239V96.7862L226.293 96.4403V95.4025L226.635 95.0566V94.3648L226.978 94.0189V92.9811L227.321 92.6352V91.5975L227.663 91.2516V90.5597L228.006 90.2138V89.1761L228.349 88.8302V87.7925L228.691 87.4465V86.7547L229.034 86.4088V85.3711L229.377 85.0252V83.9874L229.719 83.6415V82.9497L230.062 82.6038V81.566L230.405 81.2201V80.1824L230.747 79.8365V79.1447L231.09 78.7987V77.761L231.433 77.4151V76.3774L231.776 76.0314V75.3396L232.118 74.9937V73.956L232.461 73.6101V72.5723L232.804 72.2264V71.5346L233.146 71.1887V70.1509L233.489 69.805V69.1132L233.832 68.7673V67.7296L234.174 67.3836V66.3459L234.517 66V65.3082L234.86 64.9623V63.9245L235.202 63.5786V62.8868L235.545 62.5409V61.5031L235.888 61.1572V60.1195L236.23 59.7736V59.0818L236.573 58.7358V57.6981L236.916 57.3522V56.3145L237.259 55.9686V55.2767L237.601 54.9308V53.8931L237.944 53.5472V52.5094L238.287 52.1635V51.4717L238.629 51.1258V50.0881L238.972 49.7421V48.7044L239.315 48.3585V47.6667L239.657 47.3208V46.283L240 45.9371V44.5535L239.657 44.2075H238.972L237.944 45.2453H237.601L235.545 47.3208H235.202L233.832 48.7044H233.489L231.776 50.434H231.433L229.719 52.1635H229.377L227.663 53.8931H227.321L225.607 55.6226H225.265L223.551 57.3522H223.208L221.495 59.0818H221.152L219.439 60.8113H219.096L217.383 62.5409H217.04L215.327 64.2704H214.984L213.271 66H212.928L211.214 67.7296H210.872L208.816 69.805H208.473L207.102 71.1887H206.76L205.046 72.9182H204.703L204.018 73.6101V73.956L204.361 74.3019H217.04L217.383 73.956L217.725 74.3019V74.9937L217.383 75.3396V76.3774L217.04 76.7233V77.4151L216.697 77.761V78.7987L216.355 79.1447V80.1824L216.012 80.5283V81.2201L215.669 81.566V82.6038L215.327 82.9497V83.9874L214.984 84.3333V85.3711L214.641 85.717V86.4088L214.299 86.7547V87.7925L213.956 88.1384V89.1761L213.613 89.522V90.5597L213.271 90.9057V91.9434L212.928 92.2893V92.9811L212.585 93.327V94.3648L212.242 94.7107V95.7484L211.9 96.0943V97.1321L211.557 97.478V98.5157L211.214 98.8616V99.5535L210.872 99.8994V100.937L210.529 101.283V102.321L210.186 102.667V103.358L209.844 103.704V104.742L209.501 105.088V106.126L209.158 106.472V107.509L208.816 107.855V108.547L208.473 108.893V109.931L208.13 110.277V111.314L207.788 111.66V112.698L207.445 113.044V113.736L207.102 114.082V115.119L206.76 115.465V116.503L206.417 116.849V117.887L206.074 118.233V118.925L205.731 119.27V119.962L205.389 120.308V121.346L205.046 121.692V122.038L204.703 122.384V123.075L204.361 123.421V124.113L204.018 124.459V124.805L203.675 125.151V125.497L203.333 125.843V126.189L202.99 126.535V126.881L202.647 127.226V127.572L202.305 127.918V128.264L201.962 128.61V128.956L201.277 129.648V129.994L200.934 130.34V130.686L200.248 131.377V131.723L199.22 132.761V133.107L197.164 135.182V135.528L195.108 137.604H194.766L193.052 139.333H192.709L191.681 140.371H191.339L190.653 141.063H190.311L189.625 141.755H189.283L188.94 142.101H188.597L188.255 142.447H187.912L187.569 142.792H187.226L186.884 143.138H186.541L186.198 143.484H185.856L185.513 143.83H185.17L184.828 144.176H184.485L184.142 144.522H183.457L183.114 144.868H182.429L182.086 145.214H181.401L181.058 145.56H180.03L179.687 145.906H178.659L178.317 146.252H176.946L176.603 146.597H160.84L160.497 146.252V48.0126L160.84 47.6667L175.575 62.5409H175.918L176.946 63.5786H177.631V62.5409L177.289 62.195V61.8491L176.946 61.5031V61.1572L176.603 60.8113V60.1195L176.261 59.7736V59.4277L175.918 59.0818V58.7358L175.575 58.3899V58.044L175.232 57.6981V57.0063L174.89 56.6604V56.3145L174.547 55.9686V55.6226L174.204 55.2767V54.9308L173.862 54.5849V53.8931L173.519 53.5472V53.2013L173.176 52.8553V52.5094L172.834 52.1635V51.8176L172.491 51.4717V51.1258L172.148 50.7799V50.0881L171.806 49.7421V49.3962L171.463 49.0503V48.7044L171.12 48.3585V48.0126L170.778 47.6667V46.9748L170.435 46.6289V46.283L170.092 45.9371V45.5912L169.749 45.2453V44.5535L169.407 44.2075V43.8616L169.064 43.5157V42.8239L168.721 42.478V42.1321L168.379 41.7862V41.4403L168.036 41.0943V40.7484L167.693 40.4025V39.7107L167.351 39.3648V39.0189L167.008 38.673V38.327L166.665 37.9811V37.6352L166.323 37.2893V36.5975L165.98 36.2516V35.9057L165.637 35.5597V35.2138L165.295 34.8679V34.522L164.952 34.1761V33.4843L164.609 33.1384V32.7925L164.267 32.4465V32.1006L163.924 31.7547V31.4088L163.581 31.0629V30.3711L163.238 30.0252V29.6792L162.896 29.3333V28.9874L162.553 28.6415V28.2956L162.21 27.9497V27.6038L161.868 27.2579V26.566L161.525 26.2201V25.8742L161.182 25.5283V25.1824L160.84 24.8365V24.4906L160.497 24.1447V23.4528L160.154 23.1069V22.761L159.812 22.4151V22.0692L159.469 21.7233V21.3774L159.126 21.0314V20.3396L158.784 19.9937V19.6478L158.441 19.3019V18.956L158.098 18.6101V18.2642L157.756 17.9182V17.2264L157.413 16.8805V16.5346L157.07 16.1887V15.8428L156.727 15.4969V15.1509L156.385 14.805V14.1132L156.042 13.7673V13.4214L155.699 13.0755V12.7296L155.357 12.3836V12.0377L155.014 11.6918V11.3459L154.671 11" fill="black"/>
</svg>
